# Blender v2.92.0 OBJ File: ''
# www.blender.org
o cake
v 0.000000 0.000000 -1.000000
v 0.000000 0.800000 -1.000000
v 0.500000 0.000000 -0.866025
v 0.500000 1.000000 -0.866025
v 0.866025 0.000000 -0.500000
v 0.866025 0.800000 -0.500000
v 1.000000 0.000000 0.000000
v 1.000000 1.000000 0.000000
v 0.866025 0.000000 0.500000
v 0.866025 0.800000 0.500000
v 0.500000 0.000000 0.866025
v 0.500000 1.000000 0.866025
v 0.000000 0.000000 1.000000
v 0.000000 0.800000 1.000000
v -0.500000 0.000000 0.866026
v -0.500000 1.000000 0.866026
v -0.866025 0.000000 0.500000
v -0.866025 0.800000 0.500000
v -1.000000 0.000000 0.000000
v -1.000000 1.000000 0.000000
v -0.866026 0.000000 -0.499999
v -0.866026 0.800000 -0.499999
v -0.500001 0.000000 -0.866025
v -0.500001 1.000000 -0.866025
v 0.000000 0.800167 -1.067377
v 0.533689 1.000167 -0.924376
v 0.924376 0.800167 -0.533689
v 1.067377 1.000167 0.000000
v 0.924376 0.800167 0.533689
v 0.533689 1.000167 0.924376
v 0.000000 0.800167 1.067377
v -0.533688 1.000167 0.924376
v -0.924375 0.800167 0.533689
v -1.067377 1.000167 0.000000
v -0.924376 0.800167 -0.533688
v -0.533689 1.000167 -0.924375
v 0.000000 1.427118 -1.067377
v 0.533689 1.427118 -0.924376
v 0.924376 1.427118 -0.533689
v 1.067377 1.427118 0.000000
v 0.924376 1.427118 0.533689
v 0.533689 1.427118 0.924376
v 0.000000 1.427118 1.067377
v -0.533688 1.427118 0.924376
v -0.924375 1.427118 0.533689
v -1.067377 1.427118 0.000000
v -0.924376 1.427118 -0.533688
v -0.533689 1.427118 -0.924375
v -0.000000 1.427118 0.000000
v -0.000000 0.000000 0.000000
v 0.000000 0.000000 -1.000000
v 0.000000 0.000000 -1.000000
v 0.500000 0.000000 -0.866025
v 0.500000 1.000000 -0.866025
v 0.500000 1.000000 -0.866025
v 0.000000 0.800000 -1.000000
v 0.000000 0.800000 -1.000000
v 0.000000 0.800000 -1.000000
v 0.866025 0.000000 -0.500000
v 0.866025 0.800000 -0.500000
v 0.866025 0.800000 -0.500000
v 1.000000 0.000000 0.000000
v 1.000000 1.000000 0.000000
v 1.000000 1.000000 0.000000
v 0.866025 0.000000 0.500000
v 0.866025 0.800000 0.500000
v 0.866025 0.800000 0.500000
v 0.500000 0.000000 0.866025
v 0.500000 1.000000 0.866025
v 0.500000 1.000000 0.866025
v 0.000000 0.000000 1.000000
v 0.000000 0.800000 1.000000
v 0.000000 0.800000 1.000000
v -0.500000 0.000000 0.866026
v -0.500000 1.000000 0.866026
v -0.500000 1.000000 0.866026
v -0.866025 0.000000 0.500000
v -0.866025 0.800000 0.500000
v -0.866025 0.800000 0.500000
v -1.000000 0.000000 0.000000
v -1.000000 1.000000 0.000000
v -1.000000 1.000000 0.000000
v -0.866026 0.000000 -0.499999
v -0.866026 0.800000 -0.499999
v -0.866026 0.800000 -0.499999
v -0.500001 0.000000 -0.866025
v -0.500001 0.000000 -0.866025
v -0.500001 1.000000 -0.866025
v -0.500001 1.000000 -0.866025
v -0.500001 1.000000 -0.866025
v -0.924375 0.800167 0.533689
v -0.924375 0.800167 0.533689
v -1.067377 1.000167 0.000000
v -1.067377 1.000167 0.000000
v -0.924376 0.800167 -0.533688
v -0.924376 0.800167 -0.533688
v 0.924376 0.800167 -0.533689
v 0.924376 0.800167 -0.533689
v 0.924376 0.800167 -0.533689
v 0.533689 1.000167 -0.924376
v 0.533689 1.000167 -0.924376
v 0.000000 0.800167 -1.067377
v 0.000000 0.800167 -1.067377
v 0.000000 0.800167 -1.067377
v -0.533689 1.000167 -0.924375
v -0.533689 1.000167 -0.924375
v -0.533689 1.000167 -0.924375
v 1.067377 1.000167 0.000000
v 1.067377 1.000167 0.000000
v 0.924376 0.800167 0.533689
v 0.924376 0.800167 0.533689
v 0.533689 1.000167 0.924376
v 0.533689 1.000167 0.924376
v -0.533688 1.000167 0.924376
v -0.533688 1.000167 0.924376
v 0.000000 0.800167 1.067377
v 0.000000 0.800167 1.067377
v 0.533689 1.427118 -0.924376
v 0.000000 1.427118 -1.067377
v 0.000000 1.427118 -1.067377
v 0.924376 1.427118 -0.533689
v 0.924376 1.427118 -0.533689
v 1.067377 1.427118 0.000000
v 0.924376 1.427118 0.533689
v 0.533689 1.427118 0.924376
v 0.000000 1.427118 1.067377
v -0.533688 1.427118 0.924376
v -0.924375 1.427118 0.533689
v -1.067377 1.427118 0.000000
v -0.924376 1.427118 -0.533688
v -0.533689 1.427118 -0.924375
v -0.533689 1.427118 -0.924375
vt 0.729753 0.202161
vt 0.693004 0.132541
vt 0.760694 0.100028
vt 0.757119 0.194282
vt 0.825727 0.137575
vt 0.783809 0.204211
vt 0.887729 0.179940
vt 0.804315 0.223971
vt 0.887729 0.255034
vt 0.809062 0.252050
vt 0.882041 0.329912
vt 0.802202 0.279689
vt 0.817008 0.367459
vt 0.780258 0.297839
vt 0.749318 0.399972
vt 0.752892 0.305717
vt 0.684284 0.362425
vt 0.726202 0.295789
vt 0.622282 0.320060
vt 0.705696 0.276029
vt 0.622282 0.244966
vt 0.700950 0.247950
vt 0.627971 0.170088
vt 0.707810 0.220311
vt 0.707810 0.220311
vt 0.627971 0.170088
vt 0.693004 0.132541
vt 0.729753 0.202161
vt 0.780258 0.297839
vt 0.752892 0.305717
vt 0.755006 0.250000
vt 0.705696 0.276029
vt 0.700950 0.247950
vt 0.757119 0.194282
vt 0.783809 0.204211
vt 0.707810 0.220311
vt 0.804315 0.223971
vt 0.729753 0.202161
vt 0.809062 0.252050
vt 0.802202 0.279689
vt 0.726202 0.295789
vt 0.202345 0.600029
vt 0.279348 0.611027
vt 0.275791 0.621321
vt 0.204031 0.608757
vt 0.134981 0.638922
vt 0.202345 0.600029
vt 0.204031 0.608757
vt 0.142117 0.647150
vt 0.086955 0.700110
vt 0.134981 0.638922
vt 0.142117 0.647150
vt 0.095357 0.703014
vt 0.260300 0.899971
vt 0.183297 0.888973
vt 0.186854 0.878679
vt 0.258614 0.891243
vt 0.086955 0.777895
vt 0.086955 0.700110
vt 0.095357 0.703014
vt 0.097649 0.775829
vt 0.327664 0.861078
vt 0.260300 0.899971
vt 0.258614 0.891243
vt 0.320527 0.852850
vt 0.183297 0.888973
vt 0.115933 0.850081
vt 0.122648 0.844257
vt 0.186854 0.878679
vt 0.115933 0.850081
vt 0.086955 0.777895
vt 0.097649 0.775829
vt 0.122648 0.844257
vt 0.375689 0.799890
vt 0.327664 0.861078
vt 0.320527 0.852850
vt 0.367287 0.796987
vt 0.375689 0.722105
vt 0.375689 0.799890
vt 0.367287 0.796987
vt 0.364996 0.724171
vt 0.346712 0.649920
vt 0.375689 0.722105
vt 0.364996 0.724171
vt 0.339996 0.655744
vt 0.279348 0.611027
vt 0.346712 0.649920
vt 0.339996 0.655744
vt 0.275791 0.621321
vt 0.275791 0.621321
vt 0.339996 0.655744
vt 0.296425 0.693534
vt 0.259108 0.669597
vt 0.364996 0.724171
vt 0.314846 0.733861
vt 0.367287 0.796987
vt 0.312775 0.778148
vt 0.320527 0.852850
vt 0.287061 0.814265
vt 0.258614 0.891243
vt 0.247672 0.834614
vt 0.097649 0.775829
vt 0.095357 0.703014
vt 0.149870 0.721852
vt 0.147798 0.766139
vt 0.142117 0.647150
vt 0.175583 0.685736
vt 0.204031 0.608757
vt 0.214973 0.665386
vt 0.314846 0.733861
vt 0.312775 0.778148
vt 0.231322 0.750000
vt 0.166219 0.806466
vt 0.147798 0.766139
vt 0.247672 0.834614
vt 0.203537 0.830404
vt 0.175583 0.685736
vt 0.214973 0.665386
vt 0.296425 0.693534
vt 0.287061 0.814265
vt 0.149870 0.721852
vt 0.259108 0.669597
vt 0.122648 0.844257
vt 0.097649 0.775829
vt 0.147798 0.766139
vt 0.166219 0.806466
vt 0.186854 0.878679
vt 0.122648 0.844257
vt 0.166219 0.806466
vt 0.203537 0.830404
vt 0.258614 0.891243
vt 0.247672 0.834614
vn 0.2588 0.0000 -0.9659
vn 0.5000 0.0000 -0.8660
vn 0.8660 0.0000 -0.5000
vn 1.0000 0.0000 0.0000
vn 0.8660 0.0000 0.5000
vn 0.5000 0.0000 0.8660
vn 0.0000 0.0000 1.0000
vn -0.5000 0.0000 0.8660
vn -0.8660 0.0000 0.5000
vn -1.0000 0.0000 0.0000
vn -0.8660 0.0000 -0.5000
vn -0.7071 0.0000 -0.7071
vn -0.2588 0.0000 -0.9659
vn 0.0000 -1.0000 0.0000
vn 0.2459 -0.9367 0.2492
vn -0.0929 -0.9367 -0.3376
vn -0.0929 -0.9367 0.3376
vn -0.2459 -0.9367 -0.2492
vn 0.2459 -0.9367 -0.2492
vn 0.0929 -0.9367 0.3376
vn 0.3388 -0.9367 0.0883
vn -0.3388 -0.9367 0.0883
vn 0.0929 -0.9367 -0.3376
vn -0.2459 -0.9367 0.2492
vn 0.3388 -0.9367 -0.0883
vn -0.3388 -0.9367 -0.0883
vn 0.9659 0.0000 -0.2588
vn 0.0000 1.0000 0.0000
vn 0.7071 0.0000 -0.7071
s 1
f 51/1/1 56/2/1 54/3/2 53/4/2
f 53/4/2 54/3/2 60/5/3 59/6/3
f 59/6/3 60/5/3 63/7/4 62/8/4
f 62/8/4 63/7/4 66/9/5 65/10/5
f 65/10/5 66/9/5 69/11/6 68/12/6
f 68/12/6 69/11/6 72/13/7 71/14/7
f 71/14/7 72/13/7 75/15/8 74/16/8
f 74/16/8 75/15/8 78/17/9 77/18/9
f 77/18/9 78/17/9 81/19/10 80/20/10
f 80/20/10 81/19/10 84/21/11 83/22/11
f 83/22/11 84/21/11 88/23/12 86/24/12
s 2
f 87/25/13 89/26/13 57/27/13 52/28/13
s 3
f 13/29/14 15/30/14 50/31/14
f 19/32/14 21/33/14 50/31/14
f 3/34/14 5/35/14 50/31/14
f 21/33/14 23/36/14 50/31/14
f 5/35/14 7/37/14 50/31/14
f 1/38/14 3/34/14 50/31/14
f 23/36/14 1/38/14 50/31/14
f 7/37/14 9/39/14 50/31/14
f 9/39/14 11/40/14 50/31/14
f 11/40/14 13/29/14 50/31/14
f 17/41/14 19/32/14 50/31/14
f 15/30/14 17/41/14 50/31/14
s 4
f 79/42/15 76/43/15 114/44/15 91/45/15
s 5
f 82/46/16 18/47/16 92/48/16 93/49/16
s 6
f 85/50/17 20/51/17 94/52/17 95/53/17
s 7
f 61/54/18 55/55/18 100/56/18 97/57/18
s 8
f 90/58/19 22/59/19 96/60/19 105/61/19
s 9
f 64/62/20 6/63/20 98/64/20 108/65/20
s 10
f 4/66/21 58/67/21 102/68/21 101/69/21
s 11
f 2/70/22 24/71/22 106/72/22 103/73/22
s 12
f 67/74/23 8/75/23 109/76/23 110/77/23
s 13
f 70/78/24 10/79/24 111/80/24 112/81/24
s 14
f 73/82/25 12/83/25 113/84/25 116/85/25
s 15
f 16/86/26 14/87/26 117/88/26 115/89/26
s 16
f 32/90/8 31/91/7 126/92/7 127/93/8
f 31/91/7 30/94/6 42/95/6 126/92/7
f 30/94/6 29/96/5 124/97/5 42/95/6
f 29/96/5 28/98/4 123/99/4 124/97/5
f 28/98/4 99/100/27 122/101/27 123/99/4
f 36/102/12 35/103/11 130/104/11 131/105/12
f 35/103/11 34/106/10 129/107/10 130/104/11
f 34/106/10 33/108/9 128/109/9 129/107/10
f 33/108/9 32/90/8 127/93/8 128/109/9
s 17
f 125/110/28 41/111/28 49/112/28
f 37/113/28 48/114/28 49/112/28
f 39/115/28 38/116/28 49/112/28
f 46/117/28 45/118/28 49/112/28
f 43/119/28 125/110/28 49/112/28
f 40/120/28 39/115/28 49/112/28
f 47/121/28 46/117/28 49/112/28
f 44/122/28 43/119/28 49/112/28
f 41/111/28 40/120/28 49/112/28
f 48/114/28 47/121/28 49/112/28
f 38/116/28 37/113/28 49/112/28
f 45/118/28 44/122/28 49/112/28
s 18
f 104/123/13 107/124/13 132/125/13 120/126/13
s 19
f 26/127/2 25/128/1 119/129/1 118/130/2
f 27/131/29 26/127/2 118/130/2 121/132/29
